<svg width="24" height="24" viewBox="0 0 24 24" fill="none" xmlns="http://www.w3.org/2000/svg">
<path fill-rule="evenodd" clip-rule="evenodd" d="M20.75 7.49999C20.75 7.81297 20.5557 8.09304 20.2625 8.20257L8 12.7836V17.25C8 17.329 7.9878 17.4051 7.96518 17.4765C9.29373 17.332 10.847 17.25 12.5 17.25C14.8771 17.25 17.0478 17.4196 18.6407 17.7008C19.4311 17.8402 20.116 18.0134 20.6208 18.224C20.87 18.3279 21.1186 18.4585 21.3171 18.6297C21.5107 18.7967 21.75 19.0869 21.75 19.5C21.75 19.9131 21.5107 20.2033 21.3171 20.3703C21.1186 20.5415 20.87 20.6721 20.6208 20.776C20.116 20.9866 19.4311 21.1598 18.6407 21.2992C17.0478 21.5804 14.8771 21.75 12.5 21.75C10.1229 21.75 7.95224 21.5804 6.35925 21.2992C5.56887 21.1598 4.88397 20.9866 4.37918 20.776C4.12998 20.6721 3.88143 20.5415 3.68288 20.3703C3.48928 20.2033 3.25 19.9131 3.25 19.5C3.25 19.0869 3.48928 18.7967 3.68288 18.6297C3.88143 18.4585 4.12998 18.3279 4.37918 18.224C4.88397 18.0134 5.56887 17.8402 6.35925 17.7008C6.44443 17.6857 6.53126 17.671 6.61969 17.6566C6.54396 17.5395 6.5 17.3999 6.5 17.25V12.264L6.5 12.2631L6.5 9.75V2.73685C6.5 2.49103 6.62046 2.26082 6.82242 2.12067C7.02438 1.98053 7.28219 1.94825 7.51247 2.03428L20.2625 6.79742C20.5557 6.90695 20.75 7.18702 20.75 7.49999ZM17.8569 7.49999L8 11.1823L8 9.75L8 9.74923L8 3.81766L17.8569 7.49999ZM6.61993 19.1779C6.0541 19.2778 5.59585 19.388 5.25235 19.5C5.59585 19.612 6.0541 19.7222 6.61993 19.8221C8.10334 20.0839 10.1827 20.25 12.5 20.25C14.8173 20.25 16.8967 20.0839 18.3801 19.8221C18.9459 19.7222 19.4041 19.612 19.7477 19.5C19.4041 19.388 18.9459 19.2778 18.3801 19.1779C16.8967 18.9162 14.8173 18.75 12.5 18.75C10.1827 18.75 8.10334 18.9162 6.61993 19.1779Z" fill="black"/>
</svg>
