<svg width="24" height="24" viewBox="0 0 24 24" fill="none" xmlns="http://www.w3.org/2000/svg">
<path fill-rule="evenodd" clip-rule="evenodd" d="M5.25 3C5.25 2.58579 5.58579 2.25 6 2.25H18C18.4142 2.25 18.75 2.58579 18.75 3V5.25H21C21.4142 5.25 21.75 5.58579 21.75 6V11C21.75 11.4142 21.4142 11.75 21 11.75H18.5209C17.9919 13.7264 16.5882 15.3452 14.75 16.1663V17.25H16C16.4142 17.25 16.75 17.5858 16.75 18V21C16.75 21.4142 16.4142 21.75 16 21.75H8C7.58579 21.75 7.25 21.4142 7.25 21V18C7.25 17.5858 7.58579 17.25 8 17.25H9.25V16.1663C7.41184 15.3452 6.00814 13.7264 5.47906 11.75H3C2.58579 11.75 2.25 11.4142 2.25 11V6C2.25 5.58579 2.58579 5.25 3 5.25H5.25V3ZM6.75 6V10C6.75 12.8995 9.1005 15.25 12 15.25C14.8995 15.25 17.25 12.8995 17.25 10V6V3.75H6.75V6ZM5.25 6.75H3.75V10.25H5.25V10V6.75ZM18.75 10V6.75H20.25V10.25H18.75V10ZM10.75 16.75H12H13.25V17.25H10.75V16.75ZM9.25 18.75H8.75V20.25H15.25V18.75H14.75H14H10H9.25ZM12.625 5.58535C12.486 5.37591 12.2514 5.25 12 5.25C11.7487 5.25 11.514 5.37591 11.3751 5.58535L10.4892 6.92052L8.94562 7.35045C8.70349 7.41789 8.51124 7.60214 8.43357 7.84119C8.3559 8.08023 8.40313 8.3423 8.55938 8.53918L9.55546 9.79429L9.48735 11.3952C9.47667 11.6463 9.59249 11.8861 9.79583 12.0338C9.99918 12.1816 10.263 12.2176 10.4985 12.1298L12 11.5704L13.5015 12.1298C13.737 12.2176 14.0009 12.1816 14.2042 12.0338C14.4076 11.8861 14.5234 11.6463 14.5127 11.3952L14.4446 9.79429L15.4407 8.53918C15.5969 8.3423 15.6442 8.08023 15.5665 7.84119C15.4888 7.60214 15.2966 7.41789 15.0544 7.35045L13.5109 6.92052L12.625 5.58535ZM11.5846 7.98269L12 7.35657L12.4155 7.98269C12.5151 8.13289 12.6655 8.24217 12.8392 8.29054L13.563 8.49215L13.0959 9.08073C12.9839 9.22192 12.9264 9.39875 12.9341 9.57884L12.966 10.3296L12.2619 10.0672C12.093 10.0043 11.9071 10.0043 11.7382 10.0672L11.034 10.3296L11.066 9.57884C11.0736 9.39875 11.0162 9.22192 10.9041 9.08073L10.437 8.49215L11.1609 8.29054C11.3345 8.24217 11.4849 8.13289 11.5846 7.98269Z" fill="black"/>
</svg>
