<svg width="24" height="24" viewBox="0 0 24 24" fill="none" xmlns="http://www.w3.org/2000/svg">
<path d="M4 3H20V21H4V3Z" fill="white"/>
<path fill-rule="evenodd" clip-rule="evenodd" d="M3.25 3C3.25 2.58579 3.58579 2.25 4 2.25H20C20.4142 2.25 20.75 2.58579 20.75 3V21C20.75 21.4142 20.4142 21.75 20 21.75H4C3.58579 21.75 3.25 21.4142 3.25 21V3ZM4.75 3.75V20.25H19.25V3.75H4.75Z" fill="black"/>
<path fill-rule="evenodd" clip-rule="evenodd" d="M5.5 11C5.5 10.7239 5.72386 10.5 6 10.5H18C18.2761 10.5 18.5 10.7239 18.5 11V12C18.5 12.2761 18.2761 12.5 18 12.5H6C5.72386 12.5 5.5 12.2761 5.5 12V11Z" fill="black"/>
<path fill-rule="evenodd" clip-rule="evenodd" d="M13.5 14C13.5 13.7239 13.7239 13.5 14 13.5H18C18.2761 13.5 18.5 13.7239 18.5 14V19C18.5 19.2761 18.2761 19.5 18 19.5H14C13.7239 19.5 13.5 19.2761 13.5 19V14ZM14.5 14.5V18.5H17.5V14.5H14.5Z" fill="black"/>
<path d="M6 16.5C6 16.2239 6.22386 16 6.5 16H12.5C12.7761 16 13 16.2239 13 16.5V16.5C13 16.7761 12.7761 17 12.5 17H6.5C6.22386 17 6 16.7761 6 16.5V16.5Z" fill="black"/>
<path d="M6 14.5C6 14.2239 6.22386 14 6.5 14H12.5C12.7761 14 13 14.2239 13 14.5V14.5C13 14.7761 12.7761 15 12.5 15H6.5C6.22386 15 6 14.7761 6 14.5V14.5Z" fill="black"/>
<path d="M6 18.5C6 18.2239 6.22386 18 6.5 18H12.5C12.7761 18 13 18.2239 13 18.5V18.5C13 18.7761 12.7761 19 12.5 19H6.5C6.22386 19 6 18.7761 6 18.5V18.5Z" fill="black"/>
<path d="M6 6.07419H6.80857L7.76171 8.39876L7.70817 6.07419H8.37216H8.42035V6.14219C8.4025 6.16692 8.39 6.19371 8.38286 6.22257C8.37929 6.25142 8.37751 6.30088 8.37751 6.37094V9.92581H7.63855L6.66934 7.44668V9.92581H6V6.07419Z" fill="black"/>
<path d="M9.30924 9.92581V6.07419H11.5636V6.76662H10.0535V7.57651H11.2905V8.26893H10.0535V9.23338H11.5529V9.92581H9.30924Z" fill="black"/>
<path d="M12.6827 9.92581L12.3079 6.07419H12.9451L13.0843 8.36785L13.4431 6.38949H13.8929L14.2517 8.3493L14.3373 6.07419H14.9478L14.5837 9.92581H14.0482L13.6412 7.64451L13.2289 9.92581H12.6827Z" fill="black"/>
<path d="M16.7684 10C16.5435 10 16.3257 9.96497 16.1151 9.8949C15.9081 9.82071 15.7403 9.70737 15.6118 9.55487L15.9759 8.85626L16.0027 8.8068L16.0562 8.84389C16.0634 8.87275 16.0723 8.90366 16.083 8.93663C16.0973 8.96548 16.1276 9.00258 16.174 9.04791C16.2597 9.11386 16.3525 9.1695 16.4525 9.21484C16.5524 9.26018 16.656 9.2849 16.7631 9.28903C16.838 9.28903 16.9041 9.28284 16.9612 9.27048C17.0219 9.25811 17.0736 9.23751 17.1165 9.20866C17.1593 9.1798 17.1914 9.14065 17.2129 9.09119C17.2378 9.03761 17.2503 8.97372 17.2503 8.89954C17.2503 8.86244 17.245 8.82535 17.2343 8.78825C17.2271 8.74704 17.2129 8.70788 17.1914 8.67079C17.17 8.62957 17.1361 8.58836 17.0897 8.54714C17.0469 8.50592 16.9915 8.46059 16.9237 8.41113C16.8559 8.36167 16.7702 8.31015 16.6667 8.25657C16.4382 8.1288 16.2561 8.00721 16.1205 7.89181C15.9884 7.7764 15.892 7.6507 15.8313 7.51468C15.7742 7.37455 15.7456 7.20763 15.7456 7.01391C15.7456 6.82432 15.7938 6.65327 15.8902 6.50077C15.9902 6.34827 16.1241 6.22669 16.2918 6.13601C16.4596 6.04534 16.6435 6 16.8434 6C16.9969 6 17.1361 6.01855 17.261 6.05564C17.3896 6.09274 17.5074 6.14838 17.6145 6.22257C17.7251 6.29675 17.8269 6.39155 17.9197 6.50696L17.4645 7.07573L17.4324 7.11901L17.3842 7.06955C17.3806 7.03658 17.3753 7.00567 17.3681 6.97682C17.361 6.94384 17.3378 6.90263 17.2985 6.85317C17.2414 6.79547 17.1807 6.75837 17.1165 6.74189C17.0522 6.72128 16.9772 6.71097 16.8916 6.71097C16.8309 6.71097 16.7755 6.71922 16.7256 6.7357C16.6756 6.74807 16.6328 6.76868 16.5971 6.79753C16.5614 6.82226 16.5328 6.85111 16.5114 6.88408C16.4935 6.91705 16.4846 6.95209 16.4846 6.98918C16.4846 7.02628 16.4882 7.06131 16.4953 7.09428C16.5025 7.12313 16.5167 7.15404 16.5382 7.18702C16.5596 7.21999 16.5917 7.25502 16.6345 7.29212C16.6809 7.32921 16.7398 7.37249 16.8112 7.42195C16.8862 7.46728 16.979 7.52087 17.0897 7.58269C17.261 7.68161 17.4056 7.7764 17.5234 7.86708C17.6412 7.95775 17.734 8.05255 17.8019 8.15147C17.8733 8.24627 17.9232 8.35137 17.9518 8.46677C17.9839 8.58217 18 8.71406 18 8.86244C18 9.05616 17.9572 9.23957 17.8715 9.41267C17.7858 9.58578 17.6519 9.72798 17.4699 9.83926C17.2878 9.94642 17.054 10 16.7684 10Z" fill="black"/>
</svg>
